<?xml version="1.0" encoding="UTF-8"?> <svg xmlns="http://www.w3.org/2000/svg" xmlns:xlink="http://www.w3.org/1999/xlink" width="39.205" height="39.205" viewBox="0 0 39.205 39.205"><defs><style> .cls-1 { fill: #fff; } .cls-2 { fill: url(#linear-gradient); } </style><linearGradient id="linear-gradient" x1="0.5" x2="0.5" y2="1" gradientUnits="objectBoundingBox"><stop offset="0" stop-color="#ff752d"></stop><stop offset="1" stop-color="#ff274c"></stop></linearGradient></defs><g id="Group_2117" data-name="Group 2117" transform="translate(-160 -4833.999)"><circle id="Ellipse_28" data-name="Ellipse 28" class="cls-1" cx="15.5" cy="15.5" r="15.5" transform="translate(164 4838)"></circle><g id="Group_2037" data-name="Group 2037" transform="translate(160 4834)"><path id="Subtraction_2" data-name="Subtraction 2" class="cls-2" d="M-8087.4-4779.8a19.471,19.471,0,0,1-13.86-5.741A19.473,19.473,0,0,1-8107-4799.4a19.476,19.476,0,0,1,5.741-13.861A19.468,19.468,0,0,1-8087.4-4819a19.473,19.473,0,0,1,13.861,5.742,19.473,19.473,0,0,1,5.742,13.861,19.47,19.47,0,0,1-5.742,13.86A19.474,19.474,0,0,1-8087.4-4779.8Zm5.575-26.289h0c-.24.342-2.354,3.362-3.308,5.064a8.412,8.412,0,0,0-1.08,3.286,4.319,4.319,0,0,0-.033.519,4.259,4.259,0,0,0,4.254,4.254,4.258,4.258,0,0,0,4.252-4.254,4.235,4.235,0,0,0-2.34-3.8l0-.006,1.405-5.064Zm-10.606,0h0c-.24.342-2.357,3.364-3.31,5.064a8.412,8.412,0,0,0-1.08,3.286,4.034,4.034,0,0,0-.033.519,4.259,4.259,0,0,0,4.254,4.254,4.258,4.258,0,0,0,4.252-4.254,4.235,4.235,0,0,0-2.34-3.8l0-.006,1.405-5.064Z" transform="translate(8107 4819)"></path></g></g></svg> 